<?xml version="1.0" encoding="UTF-8"?>
<svg xmlns="http://www.w3.org/2000/svg" xml:space="preserve" width="600px" height="203px" version="1.1" style="shape-rendering:geometricPrecision; text-rendering:geometricPrecision; image-rendering:optimizeQuality; fill-rule:evenodd; clip-rule:evenodd"
viewBox="0 0 6000000 2029992"
 xmlns:xlink="http://www.w3.org/1999/xlink">
 <defs>
  <style type="text/css">
   <![CDATA[
    .fil0 {fill:#211917}
    .fil1 {fill:#D9261C}
   ]]>
  </style>
 </defs>
 <g>
  <g>
   <g>
   </g>
   <g>
    <path class="fil0" d="M1204469 60414c201674,-84473 437943,-81249 636723,10004 231698,102449 406903,321922 456262,570415 -110245,-1523 -220324,-342 -330568,-850 -61064,-167918 -218635,-299364 -397915,-317860 -236611,-34429 -477971,137895 -526821,371116 -66662,253914 118394,535467 375863,579404 228297,52228 475597,-92268 549038,-313112 110422,-330 220832,166 331253,-673 -47657,231344 -199630,440140 -410127,549038 -172324,92776 -379077,117036 -568715,70217 -232029,-54957 -433183,-222190 -533258,-437943 -87863,-185387 -97867,-405710 -32055,-599577 71740,-214903 241182,-393852 450320,-480179z"/>
    <path class="fil0" d="M3704566 -142c533270,0 1066528,0 1599963,0 0,106016 -166,212186 165,318202 -213709,0 -427596,0 -641306,0 0,427254 -165,854508 178,1281761 -106017,-165 -211856,-165 -317695,0 178,-427253 343,-854507 0,-1281595 -213874,-508 -427761,0 -641636,-343 839,-106004 508,-212009 331,-318025z"/>
   </g>
   <g>
    <path class="fil1" d="M2453159 -1157c367218,2031 734259,850 1101477,685 1004,569896 -685,1139791 839,1709699 815164,508 1630152,0 2445316,331 -1193,107032 -685,214052 -342,320907 -923709,685 -1847429,1027 -2771302,-166 673,-570746 838,-1141492 0,-1712239 -150627,166 -301242,0 -451857,0 508,570747 -507,1141328 508,1711897 -926082,2374 -1852342,177 -2778601,1193 673,-107363 342,-214560 165,-321757 817539,165 1635078,165 2452439,-166 1701,-570073 -1016,-1140146 1358,-1710384z"/>
   </g>
   <g>
   </g>
   <g>
   </g>
   <g>
   </g>
   <g>
   </g>
  </g>
 </g>
</svg>